<svg id="Слой_1" data-name="Слой 1" xmlns="http://www.w3.org/2000/svg" xmlns:xlink="http://www.w3.org/1999/xlink" viewBox="0 0 2408.58 2200"><defs><style>.cls-1{fill:url(#Безымянный_градиент_23);}.cls-2{fill:#fff;}</style><linearGradient id="Безымянный_градиент_23" x1="202.51" y1="1111.65" x2="2234.03" y2="1111.65" gradientUnits="userSpaceOnUse"><stop offset="0" stop-color="#68a0b3"/><stop offset="0.34" stop-color="#659fb2"/><stop offset="0.58" stop-color="#5c9aae"/><stop offset="0.78" stop-color="#4d92a7"/><stop offset="0.96" stop-color="#37889d"/><stop offset="1" stop-color="#32859b"/></linearGradient></defs><title>blue</title><g id="Logo1"><rect class="cls-1" x="202.51" y="97.52" width="2031.52" height="2028.26" rx="498.18" ry="498.18"/><path class="cls-2" d="M1915.64,734.37v28.84H1631.22v-87.6l-86.77-.08v87.68h-284V734.36h-86.77v399.45H890V904.92a141.7,141.7,0,0,0-141.7-141.7H432.27v704.62H519V1220.58h654.68v113.54a46.13,46.13,0,0,1-46.13,46.13H803v87.59h324.39a133.1,133.1,0,0,0,133.11-133.11V1220.58h284v247.26h86.77V1220.58h284.42v79.27h86.77V734.37ZM803.27,1133.81H519V850h208a76.19,76.19,0,0,1,76.19,76.19Zm741.18,0h-284V850h284Zm371.19,0H1631.22V850h284.42Z"/><path class="cls-2" d="M973.07,1758h27.1c7.54,0,13.38,2.12,17.28,6,3.3,3.3,5.08,8,5.08,13.72,0,9.57-5.17,15.58-12.7,18.38l14.48,21.17h-15.24l-12.87-19H986.11v19h-13Zm26.25,28.79c6.35,0,10-3.39,10-8.55,0-5.59-3.9-8.47-10.25-8.47h-13v17Z"/><path class="cls-2" d="M1033.36,1791.9V1758h13v33.54c0,9.65,4.83,14.65,12.79,14.65S1072,1801.38,1072,1792v-34h13v33.45c0,18-10.08,26.76-26,26.76S1033.36,1809.34,1033.36,1791.9Z"/><path class="cls-2" d="M1096.54,1807.4l32.6-37.94h-31.59V1758h48.36v9.91l-32.6,37.94h32.6v11.43h-49.37Z"/><path class="cls-2" d="M1158.27,1758h13v23.46h24.05V1758h13v59.28h-13v-23.8h-24.05v23.8h-13Z"/><path class="cls-2" d="M1220,1787.66c0-16.85,12.7-30.66,30.91-30.66,11.18,0,17.45,4.23,22.95,9.65l-7.79,9c-4.57-4.15-8.47-6.61-15.24-6.61-10,0-17.19,8.3-17.19,18.63,0,10.16,7,18.63,17.19,18.63,6.77,0,10.92-2.71,15.58-6.94l8.3,8.89c-6.1,6.52-12.87,10.08-24.31,10.08C1233,1818.32,1220,1804.85,1220,1787.66Z"/><path class="cls-2" d="M1280.81,1787.66c0-16.85,13.3-30.66,31.59-30.66s31.42,13.63,31.42,30.66c0,16.85-13.3,30.66-31.59,30.66S1280.81,1804.69,1280.81,1787.66Zm49.37,0c0-10.16-7.45-18.63-18-18.63s-17.78,8.3-17.78,18.63c0,10.16,7.45,18.63,18,18.63S1330.18,1798,1330.18,1787.66Z"/><path class="cls-2" d="M1355.41,1758h27.1c7.54,0,13.38,2.12,17.28,6,3.3,3.3,5.08,8,5.08,13.72,0,9.57-5.17,15.58-12.7,18.38l14.48,21.17H1391.4l-12.87-19h-10.08v19h-13Zm26.25,28.79c6.35,0,10-3.39,10-8.55,0-5.59-3.9-8.47-10.25-8.47h-13v17Z"/><path class="cls-2" d="M1416.64,1758h24.22c14.14,0,22.7,8.38,22.7,20.66,0,13.72-10.67,20.83-24,20.83h-9.91v17.78h-13Zm23.37,29.89c6.52,0,10.33-3.9,10.33-9.15,0-5.84-4.06-9-10.59-9h-10.08v18.12Z"/></g></svg>